<?xml version="1.0" encoding="UTF-8"?>
<svg width="1200pt" height="1200pt" version="1.1" viewBox="0 0 1200 1200" xmlns="http://www.w3.org/2000/svg">
 <path d="m730.78 533.93c0-171.71-139.69-311.39-311.39-311.39-142.14 0-262.25 95.773-299.43 226.15-4.8711 4.2969-58.355 194.44-58.355 194.44-6.6484 24.742 8.0742 50.352 28.957 50.352h48.742v98.16c0 26.27 21.289 47.555 47.555 47.555h92.652v175.6h255.24l0.003906-191.74c114.73-45.934 196.02-158.18 196.02-289.12z"/>
 <path d="m1066.5 396.82-24.098-38.688-19.586 57.395-28.523-128.26-23.172 133.14-35.844-125.88-30.035 126.5-22.031-94.871-26.809 97.727-29.27-114.9-22.883 104.81-12.84-86.832-25.262 66.492-41.293 1.0195c-8.7344-19.043-19.199-37.355-31.559-54.742-1.9805-2.7617-5.7969-3.3945-8.543-1.4531-2.7461 1.9688-3.3945 5.7969-1.4414 8.543 27.156 38.207 45.348 80.82 54.047 126.65 0.5625 2.9414 3.1211 4.9805 6.0117 4.9805 0.38281 0 0.76953-0.035156 1.1523-0.10938 3.3242-0.625 5.5195-3.8398 4.8828-7.1641-4.2344-22.32-10.715-43.871-19.234-64.598l44.496-1.1055 11.496-30.238 15.758 106.61 26.113-119.65 27.898 109.57 26.281-95.734 22.883 98.578 31.223-131.61 37.668 132.24 21.742-124.98 24.574 110.46 25.332-74.207 33.098 53.137v-59.676l61.277 0.003907v-12.254h-73.512z"/>
 <path d="m1066.9 541.3-33.516 64.906-22.945-37.344-31.199 32.281-23.664-30.602-19.738 13.129-9.9102-16.078-18.875 27.422-18.961-54.781-27.574 50.891-21.191-42.406-20.617 50.555-12.602-48.66-30.301 35.566h-24.805c2.6992-17.195 4.3203-34.609 4.3203-52.234 0-3.3828-2.7344-6.1211-6.1211-6.1211-3.3828 0-6.1211 2.7344-6.1211 6.1211 0 17.641-1.6328 35.051-4.4297 52.234h-0.10938v0.78125c-3.4688 20.965-8.8203 41.566-16.402 61.535-1.1992 3.1562 0.39453 6.6953 3.5508 7.8945 0.71875 0.27734 1.4531 0.39453 2.1719 0.39453 2.4609 0 4.8008-1.5 5.7344-3.9609 6.7305-17.723 11.746-35.914 15.359-54.406h32.496l18.695-21.949 15.973 61.609 24.324-59.711 19.633 39.266 25.523-47.125 17.797 51.383 21.973-31.883 6.6953 10.883 20.82-13.836 25.344 32.785 30.059-31.105 26.051 42.371 31.836-61.68 10.691 23.699 63.176 0.003906v-12.254h-55.262z"/>
 <path d="m1061.8 222.53-22.766-36.562-45.781 64.367-32.41-38.258-42.707 32.062-33.086-31.043-27.469 13.262-12.805-15.07-26.699 28.129-25.859-54.203-37.547 50.293-28.871-41.902-29.195 51.973-18.145-50.82-38.773 33.012-85.094-1.1875c-16.812-7.4297-34.176-13.586-52.105-18.168-3.2773-0.85156-6.6133 1.1406-7.4531 4.4141-0.83984 3.2773 1.1406 6.6133 4.4141 7.4531 36.961 9.4453 71.688 25.262 103.22 47.027 1.0664 0.73047 2.2695 1.0781 3.4805 1.0781 1.9453 0 3.8516-0.92578 5.0391-2.6406 1.9336-2.7852 1.2344-6.6016-1.5586-8.5195-9.5625-6.6016-19.488-12.504-29.594-18.035l64.043 0.88672 28.777-24.492 21.238 59.449 32.734-58.297 27.406 39.781 35.629-47.711 24.781 51.973 29.605-31.164 10.094 11.891 28.43-13.715 34.441 32.34 41.711-31.32 35.137 41.461 44.27-62.219 16.645 26.723 85.023-0.003907v-12.254h-78.203z"/>
</svg>
