<?xml version="1.0" encoding="UTF-8"?>
<svg width="1200pt" height="1200pt" version="1.1" viewBox="0 0 1200 1200" xmlns="http://www.w3.org/2000/svg">
 <path d="m1081.8 534.07c-37.875 0-69.602 26.324-78.074 61.648h-99.148c0.75-6.2266 1.2734-12.449 1.6484-18.75 0.52344-7.8008 0.75-15.676 0.75-23.551 0-45.449-8.1758-89.773-23.477-131.1l-47.102 23.926c11.773 33.977 18.074 70.125 18.074 107.18 0 7.875-0.30078 15.75-0.89844 23.551-0.375 6.3008-1.0508 12.523-1.8008 18.75h-48.523c12.824-19.352 20.324-42.676 20.324-67.727 0-30.676-11.324-59.102-30.523-80.773l63.227-32.102 20.324-10.273 32.023-16.273h95.102c8.4766 35.324 40.199 61.648 78.074 61.648 44.324 0 80.398-36.074 80.398-80.398s-36.074-80.398-80.398-80.398c-37.875 0-69.602 26.324-78.074 61.648h-99.523c-3 0-5.8516 0.67578-8.4766 2.0234l-35.477 18c-3-5.4766-6.1484-10.875-9.4492-16.273-30-48.977-71.102-91.352-121.05-123.15l-32.926 41.324c44.023 27 80.324 63.449 106.95 105.68 3.4492 5.3242 6.6016 10.727 9.6758 16.125l-52.574 26.699c-0.89844-0.52344-1.8008-1.125-2.7734-1.5742 0.074219-0.67578 0.074219-1.2734 0.074219-1.875 0-57.301-46.648-103.88-103.95-103.88-5.0234 0-10.125 0.375-15.074 1.125l41.324-51.824 33.074-41.551 61.875-77.625h81.301c8.4766 35.324 40.273 61.648 78.148 61.648 44.324 0 80.398-36.074 80.398-80.398s-36.074-80.398-80.398-80.398c-37.875 0-69.676 26.324-78.148 61.648h-90.375c-5.6992 0-11.102 2.625-14.625 7.0508l-72.301 90.75c-5.9258-2.6992-11.926-5.25-18-7.5-44.699-17.477-92.699-26.477-141.15-26.477-71.324 0-141.07 19.426-201.6 56.176-115.73 70.125-184.8 192-185.02 326.1l-85.203 147.22c-11.773 15.523-13.949 35.852-5.625 53.699 8.3242 17.773 25.352 29.176 44.926 30.227l41.699 8.25v95.625c0 60.227 49.352 109.2 110.1 109.2h93.449v131.48c0 14.477 11.699 26.25 26.25 26.25h399.45c14.477 0 26.25-11.773 26.25-26.25v-108.07c0-42.074 4.5-83.625 13.352-123.9h-53.625c-8.1016 40.426-12.227 81.977-12.227 123.9v81.824h-346.95v-131.48c0-14.477-11.773-26.25-26.25-26.25h-119.7c-31.801 0-57.602-25.426-57.602-56.699v-117.15c0-12.523-8.9258-23.324-21.227-25.801l-64.949-12.824c-1.6484-0.30078-3.6758-0.44922-5.3984-0.44922 0.97656-1.125 1.8008-2.3984 2.5508-3.6758l89.852-155.18c2.3984-4.125 3.6016-8.8516 3.5234-13.648l-0.074219-3c0-0.89844-0.074219-1.8008-0.074219-2.7734 0-115.8 59.699-221.1 159.68-281.77 52.426-31.727 112.73-48.523 174.45-48.523 36.375 0 72.449 5.9258 106.65 17.25 6.3008 2.1016 12.523 4.3516 18.523 6.8242l-42.75 53.699c-15.676-11.102-34.648-17.477-54.898-17.477-14.551 0-28.574 3.2266-41.398 9.4492-15.824-8.1758-33.301-12.375-51.375-12.375-50.551 0-94.426 34.273-108.15 81.375-62.324 11.477-110.02 66.676-110.02 131.85 0 74.023 60.227 134.18 134.18 134.18 16.352 0 32.477-3 47.625-8.7734 0.97656 1.1992 2.1758 2.25 3.2266 3.375s2.1758 2.25 3.3008 3.375c1.5742 1.5742 3.3008 3.0742 5.0234 4.5742 1.125 0.97656 2.1758 1.875 3.3008 2.7734 1.8008 1.5 3.6758 2.8516 5.5508 4.125 1.1992 0.89844 2.4766 1.7266 3.6758 2.5508 1.875 1.1992 3.75 2.3242 5.6992 3.4492 1.4258 0.75 2.9258 1.5 4.3516 2.25 1.875 0.97656 3.75 1.875 5.625 2.6992 1.7266 0.75 3.4492 1.4258 5.25 2.1016 1.7266 0.67578 3.4492 1.3516 5.25 1.9492 2.1016 0.67578 4.2734 1.1992 6.375 1.7266 1.5742 0.44922 3.0742 0.89844 4.7266 1.1992 2.5508 0.60156 5.1016 0.89844 7.7266 1.2734 1.2734 0.22656 2.4766 0.44922 3.75 0.60156 3.8984 0.44922 7.875 0.67578 11.926 0.67578s8.1758-0.22656 12.148-0.67578c0.60156-0.074219 1.125-0.22656 1.6484-0.30078 3.5234-0.375 7.0508-0.97656 10.5-1.7266h0.14844c11.852 14.551 26.699 26.102 43.5 33.977l97.352 178.95c3.2266 6.0742 9.6016 9.8242 16.426 9.8242h195.07c8.4766 35.324 40.273 61.648 78.148 61.648 44.324 0 80.398-36.074 80.398-80.398 0-44.324-36.074-80.398-80.398-80.398-37.875 0-69.676 26.324-78.148 61.648h-66.676c2.1016-6.3008 4.2734-12.523 6.5234-18.75 10.352-28.051 22.875-55.125 37.5-81 15.898-27.898 28.051-57.75 36.375-88.648h-54.676c-6.8242 21.75-15.977 42.75-27.301 62.699-19.273 33.898-35.176 69.75-47.551 106.95-2.0234 6.2266-4.0508 12.449-5.8516 18.75h-62.25l-75.898-139.57c1.2734 0.074218 2.5508 0.22656 3.8242 0.22656 41.102 0 79.125-20.25 102.15-53.551 13.352-2.7734 25.801-7.6484 37.125-14.25h240.23c8.4766 35.324 40.199 61.648 78.074 61.648 44.324 0 80.398-36.074 80.398-80.398-0.003906-44.332-36.078-80.406-80.402-80.406zm0-192.15c15.375 0 27.898 12.523 27.898 27.898s-12.523 27.898-27.898 27.898-27.898-12.523-27.898-27.898c-0.003906-15.375 12.523-27.898 27.898-27.898zm-146.93-244.28c15.375 0 27.898 12.523 27.898 27.898s-12.523 27.898-27.898 27.898-27.898-12.523-27.898-27.898c0-15.371 12.523-27.898 27.898-27.898zm23.477 733.58c15.375 0 27.898 12.523 27.898 27.898s-12.523 27.898-27.898 27.898-27.898-12.523-27.898-27.898c-0.003906-15.375 12.523-27.898 27.898-27.898zm-250.28-234.08c-8.7734 0.82422-16.574 5.9258-20.773 13.648-12.523 23.25-36.676 37.727-63.074 37.727-26.102 0-50.176-14.25-62.773-37.199-0.44922-0.75-0.97656-1.5-1.4258-2.1758-0.14844-0.14844-0.22656-0.375-0.375-0.52344-0.89844-1.3516-2.0234-2.4766-3.1484-3.6016-0.14844-0.14844-0.30078-0.22656-0.44922-0.375-1.125-1.0508-2.3242-2.0234-3.6758-2.8516h-0.074219c-4.125-2.625-8.9258-4.0508-13.875-4.0508-3.6016 0-7.2734 0.75-10.727 2.3242-7.7266 3.4492-15.898 5.25-24.301 5.25-2.5508 0-4.9492-0.22656-7.4258-0.52344-0.67578-0.074219-1.3516-0.22656-2.0234-0.30078-1.875-0.30078-3.6758-0.67578-5.4766-1.125-0.60156-0.22656-1.2734-0.30078-1.875-0.52344-2.25-0.67578-4.5-1.4258-6.6758-2.3242-0.44922-0.22656-0.82422-0.44922-1.2734-0.67578-1.7266-0.75-3.375-1.6484-5.0234-2.5508-0.75-0.44922-1.4258-0.89844-2.1016-1.2734-1.5-0.97656-2.9258-1.9492-4.3516-3.0742-0.44922-0.375-1.0508-0.67578-1.5-1.125-1.8008-1.4258-3.4492-3-5.1016-4.6484-0.44922-0.52344-0.89844-0.97656-1.3516-1.5-1.2734-1.4258-2.4766-2.8516-3.6016-4.4258-0.375-0.44922-0.67578-0.89844-1.0508-1.3516-1.4258-2.0234-2.7734-4.125-3.8984-6.375-4.4258-8.3242-6.9766-17.852-6.9766-27.898 0-32.926 26.773-59.699 59.699-59.699 3.75 0 7.5 0.375 11.102 1.0508 14.25 2.625 27.977-6.6758 30.676-20.926 2.6992-14.25-6.6758-27.977-20.926-30.676-6.8242-1.2734-13.875-1.9492-20.852-1.9492-61.875 0-112.2 50.324-112.2 112.2 0 9 1.1992 17.773 3.2266 26.25-7.5742 2.25-15.449 3.5234-23.398 3.5234-45 0-81.676-36.602-81.676-81.676 0-44.102 35.926-80.699 80.102-81.523 13.5-0.30078 24.602-10.727 25.648-24.074 2.625-30.977 28.875-55.125 59.926-55.125 12.898 0 25.199 4.0508 35.699 11.773 9.375 6.8984 22.125 6.8242 31.426-0.22656 7.5-5.625 16.352-8.625 25.648-8.625 17.551 0 33.074 10.5 39.602 26.852 2.8516 7.3516 8.9258 12.977 16.426 15.375 7.5 2.3984 15.75 1.2734 22.352-3.0742 8.3984-5.4766 18.074-8.3984 28.051-8.3984 28.352 0 51.449 23.023 51.449 51.375 0 3.9766-0.52344 7.9492-1.5742 12.227-3.3008 13.5 4.5 27.301 17.852 31.352 29.398 8.9258 49.125 35.625 49.125 66.375-0.003906 36.145-27.078 65.848-63.004 69.145zm373.73 45.227c-15.375 0-27.898-12.523-27.898-27.898s12.523-27.898 27.898-27.898 27.898 12.523 27.898 27.898-12.523 27.898-27.898 27.898z"/>
</svg>
